<svg xmlns="http://www.w3.org/2000/svg" xmlns:xlink="http://www.w3.org/1999/xlink" width="1280" zoomAndPan="magnify" viewBox="0 0 960 2999.999989" height="4000" preserveAspectRatio="xMidYMid meet" version="1.0"><defs><clipPath id="e28703b009"><path d="M 9.917969 17.722656 L 950.226562 17.722656 L 950.226562 107.378906 L 9.917969 107.378906 Z M 9.917969 17.722656 " clip-rule="nonzero"/></clipPath><clipPath id="2651ad0c2f"><path d="M 25.769531 17.722656 L 934.230469 17.722656 C 938.4375 17.722656 942.46875 19.394531 945.441406 22.367188 C 948.414062 25.339844 950.082031 29.371094 950.082031 33.574219 L 950.082031 91.527344 C 950.082031 95.730469 948.414062 99.761719 945.441406 102.734375 C 942.46875 105.707031 938.4375 107.378906 934.230469 107.378906 L 25.769531 107.378906 C 21.5625 107.378906 17.53125 105.707031 14.558594 102.734375 C 11.585938 99.761719 9.917969 95.730469 9.917969 91.527344 L 9.917969 33.574219 C 9.917969 29.371094 11.585938 25.339844 14.558594 22.367188 C 17.53125 19.394531 21.5625 17.722656 25.769531 17.722656 Z M 25.769531 17.722656 " clip-rule="nonzero"/></clipPath><clipPath id="55fcb08dfa"><path d="M 780.164062 43.460938 L 920.726562 43.460938 L 920.726562 81.824219 L 780.164062 81.824219 Z M 780.164062 43.460938 " clip-rule="nonzero"/></clipPath><clipPath id="34673fd6a1"><path d="M 799.347656 43.460938 L 901.402344 43.460938 C 911.996094 43.460938 920.585938 52.046875 920.585938 62.640625 C 920.585938 73.234375 911.996094 81.824219 901.402344 81.824219 L 799.347656 81.824219 C 788.753906 81.824219 780.164062 73.234375 780.164062 62.640625 C 780.164062 52.046875 788.753906 43.460938 799.347656 43.460938 Z M 799.347656 43.460938 " clip-rule="nonzero"/></clipPath></defs><rect x="-96" width="1152" fill="#ffffff" y="-299.999999" height="3599.999987" fill-opacity="1"/><rect x="-96" width="1152" fill="#ffffff" y="-299.999999" height="3599.999987" fill-opacity="1"/><g clip-path="url(#e28703b009)"><g clip-path="url(#2651ad0c2f)"><path fill="#ffe500" d="M 9.917969 17.722656 L 950.226562 17.722656 L 950.226562 107.378906 L 9.917969 107.378906 Z M 9.917969 17.722656 " fill-opacity="1" fill-rule="nonzero"/></g></g><g clip-path="url(#55fcb08dfa)"><g clip-path="url(#34673fd6a1)"><path fill="#000000" d="M 780.164062 43.460938 L 920.578125 43.460938 L 920.578125 81.824219 L 780.164062 81.824219 Z M 780.164062 43.460938 " fill-opacity="1" fill-rule="nonzero"/></g></g></svg>