<svg xmlns="http://www.w3.org/2000/svg" xmlns:xlink="http://www.w3.org/1999/xlink" width="3840" zoomAndPan="magnify" viewBox="0 0 2880 1225.499968" height="1634" preserveAspectRatio="xMidYMid meet" version="1.0"><defs><g/><clipPath id="408fc7f69c"><path d="M 1745.242188 9.695312 L 2152.359375 9.695312 L 2152.359375 416.8125 L 1745.242188 416.8125 Z M 1745.242188 9.695312 " clip-rule="nonzero"/></clipPath></defs><g fill="#000000" fill-opacity="1"><g transform="translate(175.976045, 547.385014)"><g><path d="M 482.5 0 L 482.5 -456.625 L 403.59375 -456.625 L 262.59375 -82.140625 L 122.890625 -456.625 L 43.984375 -456.625 L 43.984375 0 L 103.484375 0 C 103.484375 -13.578125 97.015625 -377.078125 97.015625 -377.078125 L 238.65625 0 L 285.875 0 L 430.109375 -382.890625 C 430.109375 -382.890625 421.703125 -12.28125 421.703125 0 Z M 482.5 0 "/></g></g></g><g fill="#000000" fill-opacity="1"><g transform="translate(675.859275, 547.385014)"><g><path d="M 94.4375 -397.125 L 94.4375 -456.625 L 44.625 -456.625 L 44.625 -397.125 Z M 94.4375 0 L 94.4375 -304.640625 L 44.625 -304.640625 L 44.625 0 Z M 94.4375 0 "/></g></g></g><g fill="#000000" fill-opacity="1"><g transform="translate(785.144956, 547.385014)"><g><path d="M 321.453125 0 L 321.453125 -456.625 L 269.703125 -456.625 L 269.703125 -264.53125 C 258.71875 -282 220.546875 -314.328125 164.921875 -314.328125 C 102.84375 -314.328125 25.21875 -271.640625 25.21875 -153.28125 C 25.21875 -58.859375 76.3125 9.703125 165.578125 9.703125 C 225.734375 9.703125 254.1875 -20.703125 269.703125 -38.8125 L 269.703125 0 Z M 80.84375 -151.34375 C 80.84375 -208.90625 107.359375 -267.125 177.21875 -267.125 C 234.78125 -267.125 271 -219.265625 271 -156.515625 C 271 -63.390625 221.203125 -36.21875 175.921875 -36.21875 C 102.1875 -36.21875 80.84375 -97.65625 80.84375 -151.34375 Z M 80.84375 -151.34375 "/></g></g></g><g fill="#000000" fill-opacity="1"><g transform="translate(1123.357042, 547.385014)"><g><path d="M 223.78125 -182.390625 L 177.21875 -179.15625 C 138.40625 -176.578125 84.734375 -168.15625 53.6875 -144.875 C 24.578125 -122.890625 20.703125 -93.140625 20.703125 -78.90625 C 20.703125 -26.515625 63.390625 8.40625 124.1875 8.40625 C 183.046875 8.40625 214.078125 -25.875 228.3125 -41.390625 C 228.953125 -32.34375 236.71875 -12.9375 249.015625 -3.875 C 260 3.875 278.765625 3.875 281.34375 3.875 C 289.765625 3.875 298.8125 3.234375 314.328125 -1.9375 L 314.328125 -45.28125 C 308.515625 -43.984375 305.28125 -42.6875 298.8125 -42.6875 C 276.171875 -42.6875 275.53125 -60.15625 275.53125 -78.265625 L 275.53125 -185.625 C 275.53125 -239.953125 272.9375 -271.640625 229.609375 -296.21875 C 204.390625 -311.109375 172.046875 -314.328125 153.28125 -314.328125 C 45.28125 -314.328125 36.21875 -228.953125 36.21875 -214.078125 L 89.90625 -210.84375 L 89.90625 -215.375 C 89.90625 -253.53125 113.1875 -274.875 155.875 -274.875 C 223.140625 -274.875 223.78125 -221.203125 223.78125 -192.734375 Z M 224.4375 -148.765625 L 224.4375 -124.828125 C 224.4375 -46.5625 162.984375 -34.921875 135.171875 -34.921875 C 94.4375 -34.921875 77.609375 -57.5625 77.609375 -80.203125 C 77.609375 -109.953125 105.421875 -122.890625 115.125 -126.765625 C 139.0625 -137.125 200.5 -144.875 224.4375 -148.765625 Z M 224.4375 -148.765625 "/></g></g></g><g fill="#000000" fill-opacity="1"><g transform="translate(1421.474609, 547.385014)"><g><path d="M 20.046875 -98.3125 C 29.109375 -38.8125 63.390625 9.703125 161.6875 9.703125 C 234.140625 9.703125 289.109375 -28.453125 289.109375 -86.671875 C 289.109375 -142.296875 244.484375 -161.6875 187.5625 -175.28125 L 157.8125 -182.390625 C 111.25 -193.390625 84.078125 -203.734375 84.078125 -230.25 C 84.078125 -249.65625 102.1875 -274.875 144.234375 -274.875 C 188.21875 -274.875 213.4375 -252.890625 221.203125 -236.078125 C 224.4375 -228.953125 225.078125 -222.5 225.734375 -207.609375 L 281.34375 -214.078125 C 280.0625 -223.140625 277.46875 -241.890625 265.1875 -260.65625 C 250.296875 -282.640625 215.375 -314.328125 151.34375 -314.328125 C 96.375 -314.328125 32.984375 -290.40625 32.984375 -223.78125 C 32.984375 -181.09375 58.203125 -151.34375 141.640625 -135.171875 L 171.390625 -129.359375 C 199.203125 -124.1875 234.78125 -117.71875 234.78125 -80.84375 C 234.78125 -37.515625 189.5 -29.75 164.28125 -29.75 C 139.0625 -29.75 113.828125 -32.984375 95.71875 -53.03125 C 80.84375 -69.203125 78.90625 -86.671875 78.90625 -106.71875 Z M 20.046875 -98.3125 "/></g></g></g><g fill="#000000" fill-opacity="1"><g transform="translate(175.976045, 1077.407113)"><g><path d="M 413.9375 -173.34375 C 399.0625 -80.84375 333.734375 -39.453125 262.59375 -39.453125 C 170.75 -39.453125 98.953125 -100.890625 98.953125 -231.546875 C 98.953125 -342.796875 157.8125 -419.765625 261.953125 -419.765625 C 347.328125 -419.765625 393.25 -367.375 409.40625 -316.28125 L 470.859375 -328.5625 C 440.453125 -415.875 371.25 -468.265625 262.59375 -468.265625 C 117.71875 -468.265625 31.6875 -370.609375 31.6875 -228.3125 C 31.6875 -85.375 117.71875 11.640625 254.828125 11.640625 C 399.0625 11.640625 464.390625 -91.84375 479.90625 -165.578125 Z M 413.9375 -173.34375 "/></g></g></g><g fill="#000000" fill-opacity="1"><g transform="translate(732.134702, 1077.407113)"><g><path d="M 42.046875 -304.640625 L 42.046875 0 L 93.78125 0 L 93.78125 -141 C 93.78125 -170.75 94.4375 -181.75 98.3125 -197.265625 C 108.65625 -234.78125 141 -254.828125 177.859375 -254.828125 C 184.328125 -254.828125 191.453125 -254.1875 197.921875 -252.890625 L 197.921875 -308.515625 C 158.46875 -308.515625 134.53125 -293.640625 122.234375 -283.9375 C 109.953125 -274.234375 100.890625 -262.59375 93.78125 -249.015625 L 93.78125 -304.640625 Z M 42.046875 -304.640625 "/></g></g></g><g fill="#000000" fill-opacity="1"><g transform="translate(996.638582, 1077.407113)"><g><path d="M 223.78125 -182.390625 L 177.21875 -179.15625 C 138.40625 -176.578125 84.734375 -168.15625 53.6875 -144.875 C 24.578125 -122.890625 20.703125 -93.140625 20.703125 -78.90625 C 20.703125 -26.515625 63.390625 8.40625 124.1875 8.40625 C 183.046875 8.40625 214.078125 -25.875 228.3125 -41.390625 C 228.953125 -32.34375 236.71875 -12.9375 249.015625 -3.875 C 260 3.875 278.765625 3.875 281.34375 3.875 C 289.765625 3.875 298.8125 3.234375 314.328125 -1.9375 L 314.328125 -45.28125 C 308.515625 -43.984375 305.28125 -42.6875 298.8125 -42.6875 C 276.171875 -42.6875 275.53125 -60.15625 275.53125 -78.265625 L 275.53125 -185.625 C 275.53125 -239.953125 272.9375 -271.640625 229.609375 -296.21875 C 204.390625 -311.109375 172.046875 -314.328125 153.28125 -314.328125 C 45.28125 -314.328125 36.21875 -228.953125 36.21875 -214.078125 L 89.90625 -210.84375 L 89.90625 -215.375 C 89.90625 -253.53125 113.1875 -274.875 155.875 -274.875 C 223.140625 -274.875 223.78125 -221.203125 223.78125 -192.734375 Z M 224.4375 -148.765625 L 224.4375 -124.828125 C 224.4375 -46.5625 162.984375 -34.921875 135.171875 -34.921875 C 94.4375 -34.921875 77.609375 -57.5625 77.609375 -80.203125 C 77.609375 -109.953125 105.421875 -122.890625 115.125 -126.765625 C 139.0625 -137.125 200.5 -144.875 224.4375 -148.765625 Z M 224.4375 -148.765625 "/></g></g></g><g fill="#000000" fill-opacity="1"><g transform="translate(1382.072434, 1077.407113)"><g><path d="M 108.015625 -304.640625 L 108.015625 -362.84375 C 108.015625 -397.125 120.296875 -412 146.8125 -412 C 157.8125 -412 173.34375 -409.40625 175.28125 -408.765625 L 175.28125 -449.515625 C 157.8125 -452.75 144.234375 -453.390625 137.765625 -453.390625 C 126.125 -453.390625 81.5 -452.75 65.328125 -411.359375 C 57.5625 -391.953125 57.5625 -372.546875 57.5625 -331.15625 L 57.5625 -304.640625 L 7.109375 -304.640625 L 7.109375 -261.953125 L 57.5625 -261.953125 L 57.5625 0 L 108.015625 0 L 108.015625 -261.953125 L 165.578125 -261.953125 L 165.578125 -304.640625 Z M 108.015625 -304.640625 "/></g></g></g><g fill="#000000" fill-opacity="1"><g transform="translate(1619.415578, 1077.407113)"><g><path d="M 112.546875 -261.953125 L 167.515625 -261.953125 L 167.515625 -304.640625 L 112.546875 -304.640625 L 112.546875 -401 L 59.5 -401 L 59.5 -304.640625 L 10.34375 -304.640625 L 10.34375 -261.953125 L 59.5 -261.953125 L 59.5 -49.796875 C 59.5 -14.875 67.90625 5.171875 118.359375 5.171875 C 138.40625 5.171875 162.984375 0.640625 167.515625 0 L 167.515625 -42.6875 C 153.28125 -37.515625 141 -35.578125 135.171875 -35.578125 C 119 -35.578125 112.546875 -43.984375 112.546875 -65.96875 Z M 112.546875 -261.953125 "/></g></g></g><g fill="#000000" fill-opacity="1"><g transform="translate(1870.339032, 1077.407113)"><g><path d="M 105.421875 0 L 105.421875 -73.09375 L 41.390625 -73.09375 L 41.390625 0 Z M 105.421875 0 "/></g></g></g><g clip-path="url(#408fc7f69c)"><path fill="#ffe500" d="M 2155.1875 9.695312 L 2155.1875 214.6875 L 1950.164062 9.695312 Z M 1745.242188 9.695312 L 1950.164062 214.6875 L 1950.164062 9.695312 Z M 2155.1875 419.644531 L 2155.1875 214.6875 L 1950.164062 214.6875 Z M 1950.164062 419.644531 L 1950.164062 214.6875 L 1745.242188 214.6875 Z M 1950.164062 419.644531 " fill-opacity="1" fill-rule="nonzero"/></g></svg>