<svg xmlns="http://www.w3.org/2000/svg" xmlns:xlink="http://www.w3.org/1999/xlink" width="500" zoomAndPan="magnify" viewBox="0 0 375 374.999991" height="500" preserveAspectRatio="xMidYMid meet" version="1.0"><defs><g/><clipPath id="07b6740d18"><path d="M 244.09375 123.75 L 283.84375 123.75 L 283.84375 163.5 L 244.09375 163.5 Z M 244.09375 123.75 " clip-rule="nonzero"/></clipPath></defs><g fill="#000000" fill-opacity="1"><g transform="translate(90.872826, 176.249988)"><g><path d="M 47.109375 0 L 47.109375 -44.582031 L 39.40625 -44.582031 L 25.640625 -8.019531 L 12 -44.582031 L 4.292969 -44.582031 L 4.292969 0 L 10.105469 0 C 10.105469 -1.324219 9.472656 -36.816406 9.472656 -36.816406 L 23.300781 0 L 27.914062 0 L 41.996094 -37.386719 C 41.996094 -37.386719 41.171875 -1.199219 41.171875 0 Z M 47.109375 0 "/></g></g></g><g fill="#000000" fill-opacity="1"><g transform="translate(139.680146, 176.249988)"><g><path d="M 9.21875 -38.773438 L 9.21875 -44.582031 L 4.355469 -44.582031 L 4.355469 -38.773438 Z M 9.21875 0 L 9.21875 -29.742188 L 4.355469 -29.742188 L 4.355469 0 Z M 9.21875 0 "/></g></g></g><g fill="#000000" fill-opacity="1"><g transform="translate(150.350525, 176.249988)"><g><path d="M 31.386719 0 L 31.386719 -44.582031 L 26.332031 -44.582031 L 26.332031 -25.828125 C 25.261719 -27.535156 21.535156 -30.691406 16.101562 -30.691406 C 10.039062 -30.691406 2.460938 -26.523438 2.460938 -14.964844 C 2.460938 -5.746094 7.453125 0.945312 16.167969 0.945312 C 22.039062 0.945312 24.816406 -2.019531 26.332031 -3.789062 L 26.332031 0 Z M 7.894531 -14.777344 C 7.894531 -20.398438 10.484375 -26.082031 17.304688 -26.082031 C 22.921875 -26.082031 26.460938 -21.40625 26.460938 -15.28125 C 26.460938 -6.1875 21.597656 -3.535156 17.175781 -3.535156 C 9.976562 -3.535156 7.894531 -9.535156 7.894531 -14.777344 Z M 7.894531 -14.777344 "/></g></g></g><g fill="#000000" fill-opacity="1"><g transform="translate(183.37269, 176.249988)"><g><path d="M 21.851562 -17.808594 L 17.304688 -17.492188 C 13.515625 -17.238281 8.273438 -16.417969 5.242188 -14.144531 C 2.398438 -12 2.019531 -9.09375 2.019531 -7.703125 C 2.019531 -2.589844 6.1875 0.820312 12.125 0.820312 C 17.871094 0.820312 20.902344 -2.527344 22.292969 -4.042969 C 22.355469 -3.15625 23.113281 -1.261719 24.3125 -0.378906 C 25.386719 0.378906 27.21875 0.378906 27.46875 0.378906 C 28.292969 0.378906 29.175781 0.316406 30.691406 -0.1875 L 30.691406 -4.421875 C 30.121094 -4.292969 29.808594 -4.167969 29.175781 -4.167969 C 26.964844 -4.167969 26.902344 -5.871094 26.902344 -7.640625 L 26.902344 -18.125 C 26.902344 -23.429688 26.648438 -26.523438 22.417969 -28.921875 C 19.957031 -30.375 16.796875 -30.691406 14.964844 -30.691406 C 4.421875 -30.691406 3.535156 -22.355469 3.535156 -20.902344 L 8.777344 -20.585938 L 8.777344 -21.027344 C 8.777344 -24.753906 11.050781 -26.839844 15.21875 -26.839844 C 21.785156 -26.839844 21.851562 -21.597656 21.851562 -18.820312 Z M 21.914062 -14.523438 L 21.914062 -12.1875 C 21.914062 -4.546875 15.914062 -3.410156 13.199219 -3.410156 C 9.21875 -3.410156 7.578125 -5.621094 7.578125 -7.832031 C 7.578125 -10.734375 10.292969 -12 11.242188 -12.378906 C 13.578125 -13.386719 19.578125 -14.144531 21.914062 -14.523438 Z M 21.914062 -14.523438 "/></g></g></g><g fill="#000000" fill-opacity="1"><g transform="translate(212.480128, 176.249988)"><g><path d="M 1.957031 -9.597656 C 2.839844 -3.789062 6.1875 0.945312 15.789062 0.945312 C 22.859375 0.945312 28.226562 -2.777344 28.226562 -8.460938 C 28.226562 -13.894531 23.871094 -15.789062 18.3125 -17.113281 L 15.410156 -17.808594 C 10.863281 -18.882812 8.210938 -19.890625 8.210938 -22.480469 C 8.210938 -24.375 9.976562 -26.839844 14.082031 -26.839844 C 18.375 -26.839844 20.839844 -24.691406 21.597656 -23.050781 C 21.914062 -22.355469 21.976562 -21.722656 22.039062 -20.269531 L 27.46875 -20.902344 C 27.34375 -21.785156 27.089844 -23.617188 25.890625 -25.449219 C 24.4375 -27.597656 21.027344 -30.691406 14.777344 -30.691406 C 9.410156 -30.691406 3.21875 -28.355469 3.21875 -21.851562 C 3.21875 -17.683594 5.683594 -14.777344 13.828125 -13.199219 L 16.734375 -12.628906 C 19.449219 -12.125 22.921875 -11.492188 22.921875 -7.894531 C 22.921875 -3.664062 18.503906 -2.90625 16.039062 -2.90625 C 13.578125 -2.90625 11.113281 -3.21875 9.347656 -5.179688 C 7.894531 -6.757812 7.703125 -8.460938 7.703125 -10.417969 Z M 1.957031 -9.597656 "/></g></g></g><g fill="#000000" fill-opacity="1"><g transform="translate(90.872826, 227.999985)"><g><path d="M 40.414062 -16.925781 C 38.964844 -7.894531 32.585938 -3.851562 25.640625 -3.851562 C 16.671875 -3.851562 9.660156 -9.851562 9.660156 -22.609375 C 9.660156 -33.46875 15.410156 -40.984375 25.574219 -40.984375 C 33.910156 -40.984375 38.394531 -35.871094 39.972656 -30.878906 L 45.972656 -32.082031 C 43.003906 -40.605469 36.25 -45.71875 25.640625 -45.71875 C 11.492188 -45.71875 3.09375 -36.183594 3.09375 -22.292969 C 3.09375 -8.335938 11.492188 1.136719 24.882812 1.136719 C 38.964844 1.136719 45.339844 -8.96875 46.855469 -16.167969 Z M 40.414062 -16.925781 "/></g></g></g><g fill="#000000" fill-opacity="1"><g transform="translate(145.174729, 227.999985)"><g><path d="M 4.105469 -29.742188 L 4.105469 0 L 9.15625 0 L 9.15625 -13.765625 C 9.15625 -16.671875 9.21875 -17.746094 9.597656 -19.261719 C 10.609375 -22.921875 13.765625 -24.882812 17.367188 -24.882812 C 17.996094 -24.882812 18.691406 -24.816406 19.324219 -24.691406 L 19.324219 -30.121094 C 15.472656 -30.121094 13.136719 -28.671875 11.933594 -27.722656 C 10.734375 -26.777344 9.851562 -25.640625 9.15625 -24.3125 L 9.15625 -29.742188 Z M 4.105469 -29.742188 "/></g></g></g><g fill="#000000" fill-opacity="1"><g transform="translate(171.000208, 227.999985)"><g><path d="M 21.851562 -17.808594 L 17.304688 -17.492188 C 13.515625 -17.238281 8.273438 -16.417969 5.242188 -14.144531 C 2.398438 -12 2.019531 -9.09375 2.019531 -7.703125 C 2.019531 -2.589844 6.1875 0.820312 12.125 0.820312 C 17.871094 0.820312 20.902344 -2.527344 22.292969 -4.042969 C 22.355469 -3.15625 23.113281 -1.261719 24.3125 -0.378906 C 25.386719 0.378906 27.21875 0.378906 27.46875 0.378906 C 28.292969 0.378906 29.175781 0.316406 30.691406 -0.1875 L 30.691406 -4.421875 C 30.121094 -4.292969 29.808594 -4.167969 29.175781 -4.167969 C 26.964844 -4.167969 26.902344 -5.871094 26.902344 -7.640625 L 26.902344 -18.125 C 26.902344 -23.429688 26.648438 -26.523438 22.417969 -28.921875 C 19.957031 -30.375 16.796875 -30.691406 14.964844 -30.691406 C 4.421875 -30.691406 3.535156 -22.355469 3.535156 -20.902344 L 8.777344 -20.585938 L 8.777344 -21.027344 C 8.777344 -24.753906 11.050781 -26.839844 15.21875 -26.839844 C 21.785156 -26.839844 21.851562 -21.597656 21.851562 -18.820312 Z M 21.914062 -14.523438 L 21.914062 -12.1875 C 21.914062 -4.546875 15.914062 -3.410156 13.199219 -3.410156 C 9.21875 -3.410156 7.578125 -5.621094 7.578125 -7.832031 C 7.578125 -10.734375 10.292969 -12 11.242188 -12.378906 C 13.578125 -13.386719 19.578125 -14.144531 21.914062 -14.523438 Z M 21.914062 -14.523438 "/></g></g></g><g fill="#000000" fill-opacity="1"><g transform="translate(208.63298, 227.999985)"><g><path d="M 10.546875 -29.742188 L 10.546875 -35.425781 C 10.546875 -38.773438 11.746094 -40.226562 14.335938 -40.226562 C 15.410156 -40.226562 16.925781 -39.972656 17.113281 -39.910156 L 17.113281 -43.890625 C 15.410156 -44.203125 14.082031 -44.269531 13.449219 -44.269531 C 12.3125 -44.269531 7.957031 -44.203125 6.378906 -40.164062 C 5.621094 -38.269531 5.621094 -36.375 5.621094 -32.332031 L 5.621094 -29.742188 L 0.695312 -29.742188 L 0.695312 -25.574219 L 5.621094 -25.574219 L 5.621094 0 L 10.546875 0 L 10.546875 -25.574219 L 16.167969 -25.574219 L 16.167969 -29.742188 Z M 10.546875 -29.742188 "/></g></g></g><g fill="#000000" fill-opacity="1"><g transform="translate(231.806555, 227.999985)"><g><path d="M 10.988281 -25.574219 L 16.355469 -25.574219 L 16.355469 -29.742188 L 10.988281 -29.742188 L 10.988281 -39.152344 L 5.808594 -39.152344 L 5.808594 -29.742188 L 1.011719 -29.742188 L 1.011719 -25.574219 L 5.808594 -25.574219 L 5.808594 -4.863281 C 5.808594 -1.453125 6.628906 0.503906 11.554688 0.503906 C 13.515625 0.503906 15.914062 0.0625 16.355469 0 L 16.355469 -4.167969 C 14.964844 -3.664062 13.765625 -3.472656 13.199219 -3.472656 C 11.621094 -3.472656 10.988281 -4.292969 10.988281 -6.441406 Z M 10.988281 -25.574219 "/></g></g></g><g fill="#000000" fill-opacity="1"><g transform="translate(256.306076, 227.999985)"><g><path d="M 10.292969 0 L 10.292969 -7.136719 L 4.042969 -7.136719 L 4.042969 0 Z M 10.292969 0 "/></g></g></g><g clip-path="url(#07b6740d18)"><path fill="#ffe500" d="M 284.117188 123.75 L 284.117188 143.765625 L 264.101562 123.75 Z M 244.09375 123.75 L 264.101562 143.765625 L 264.101562 123.75 Z M 284.117188 163.777344 L 284.117188 143.765625 L 264.101562 143.765625 Z M 264.101562 163.777344 L 264.101562 143.765625 L 244.09375 143.765625 Z M 264.101562 163.777344 " fill-opacity="1" fill-rule="nonzero"/></g></svg>